<?xml version="1.0" encoding="UTF-8" standalone="no"?>
<!-- Created using Krita: http://krita.org -->

<svg
   xmlns:osb="http://www.openswatchbook.org/uri/2009/osb"
   xmlns:dc="http://purl.org/dc/elements/1.1/"
   xmlns:cc="http://creativecommons.org/ns#"
   xmlns:rdf="http://www.w3.org/1999/02/22-rdf-syntax-ns#"
   xmlns:svg="http://www.w3.org/2000/svg"
   xmlns="http://www.w3.org/2000/svg"
   xmlns:sodipodi="http://sodipodi.sourceforge.net/DTD/sodipodi-0.dtd"
   xmlns:inkscape="http://www.inkscape.org/namespaces/inkscape"
   width="120pt"
   height="120pt"
   viewBox="0 0 120 120"
   version="1.1"
   id="svg61"
   sodipodi:docname="padrao.svg"
   inkscape:version="0.92.3 (2405546, 2018-03-11)">
  <metadata
     id="metadata65">
    <rdf:RDF>
      <cc:Work
         rdf:about="">
        <dc:format>image/svg+xml</dc:format>
        <dc:type
           rdf:resource="http://purl.org/dc/dcmitype/StillImage" />
        <dc:title></dc:title>
      </cc:Work>
    </rdf:RDF>
  </metadata>
  <sodipodi:namedview
     pagecolor="#ffffff"
     bordercolor="#666666"
     borderopacity="1"
     objecttolerance="10"
     gridtolerance="10"
     guidetolerance="10"
     inkscape:pageopacity="0"
     inkscape:pageshadow="2"
     inkscape:window-width="1366"
     inkscape:window-height="697"
     id="namedview63"
     showgrid="false"
     inkscape:zoom="2.6684743"
     inkscape:cx="24.69299"
     inkscape:cy="95.278032"
     inkscape:window-x="-8"
     inkscape:window-y="-8"
     inkscape:window-maximized="1"
     inkscape:current-layer="svg61" />
  <defs
     id="defs56">
    <linearGradient
       id="green-button"
       osb:paint="solid">
      <stop
         style="stop-color:#52be80;stop-opacity:1;"
         offset="0"
         id="stop886" />
    </linearGradient>
  </defs>
  <g
     id="g889"
     transform="translate(9.2749627,7.0264869)"
     style="stroke:#ffffff;fill:#ffffff">
    <path
       sodipodi:nodetypes="cccscc"
       inkscape:connector-curvature="0"
       id="path852"
       d="m 45.446828,64.068665 c -0.210571,-4.978247 3.203266,-6.75382 5.290692,-9.881791 2.35593,3.087538 5.678074,5.932782 5.032028,9.883568 -2.09294,4.814149 -6.695986,5.335232 -9.515323,1.363869 -0.289487,-0.407777 -0.560169,-0.862918 -0.807397,-1.365639 z"
       style="fill:#ffffff;stroke:#ffffff;stroke-width:0.38351721px;stroke-linecap:butt;stroke-linejoin:miter;stroke-opacity:1" />
    <path
       sodipodi:nodetypes="ccccccccccccc"
       inkscape:connector-curvature="0"
       id="path872"
       d="M 72.341019,104.89583 C 63.896101,104.16589 57.08303,104.52386 44.461054,101.00922 36.769489,97.486383 27.867917,92.961725 23.101953,89.976281 21.58867,88.912226 23.337504,86.7608 23.848687,85.021923 35.434899,88.033004 43.637409,88.9639 51.672156,89.791661 l 23.37474,0.04822 c -7.484059,-2.537977 -7.73382,-3.616995 -16.123689,-3.974783 l -11.225832,-0.04822 c -2.288459,-4.374626 0.427785,-4.74549 1.589912,-6.359647 l 16.694081,-0.794955 c 10.620864,0.303271 21.725008,-0.521113 30.208338,4.769738 v 11.924339 c -7.769879,3.89856 -15.367801,8.484947 -23.848687,9.539477 z"
       style="fill:#ffffff;stroke:#ffffff;stroke-width:0.75px;stroke-linecap:butt;stroke-linejoin:miter;stroke-opacity:1" />
    <g
       transform="matrix(1.8278177,0,0,1.6088722,-6.8664959,-0.36006975)"
       id="g882"
       style="stroke:#ffffff;fill:#ffffff">
      <path
         style="fill:#ffffff;stroke:#ffffff;stroke-width:0.75px;stroke-linecap:butt;stroke-linejoin:miter;stroke-opacity:1"
         d="m 12.155823,10.246274 c 6.614059,-0.176985 12.074153,-0.11723 18.198601,-0.140529 3.093061,0.302986 4.682917,2.203129 4.778011,5.691455 l -0.14053,15.73933 -7.167017,-0.07026 -0.14053,-14.263774 H 12.155822 l 10e-7,5.972514 -6.253574,0.07026 V 4.2034957 h 6.323838 z"
         id="path874"
         inkscape:connector-curvature="0"
         sodipodi:nodetypes="cccccccccccc" />
      <path
         style="fill:#ffffff;stroke:#ffffff;stroke-width:0.75px;stroke-linecap:butt;stroke-linejoin:miter;stroke-opacity:1"
         d="M 20.095753,10.03548 V 6.9438255 l -4.496952,-0.070265 0.07027,-4.9185408 h 13.13953 V 6.9438254 H 24.31165 v 3.1619196 z"
         id="path878"
         inkscape:connector-curvature="0"
         sodipodi:nodetypes="ccccccccc" />
    </g>
  </g>
</svg>
